<?xml version="1.0" encoding="UTF-8"?>
<svg width="1200" height="630" viewBox="0 0 1200 630" fill="none" xmlns="http://www.w3.org/2000/svg">
  <!-- Fundo com gradiente -->
  <rect width="1200" height="630" fill="url(#paint0_linear)"/>
  
  <!-- Símbolo do infinito (estilo do código fornecido) -->
  <g transform="translate(450, 180) scale(2)">
    <path
      d="M30 40C30 25 50 10 75 10C100 10 120 25 120 40C120 55 100 70 75 70C50 70 30 55 30 40Z"
      stroke="#4A90E2"
      stroke-width="8"
      fill="transparent"
    />
    <path
      d="M120 40C120 55 100 70 75 70C50 70 30 55 30 40C30 25 50 10 75 10C100 10 120 25 120 40Z"
      stroke="#50C878"
      stroke-width="8"
      fill="transparent"
    />
  </g>
  
  <!-- Texto -->
  <text x="600" y="450" font-family="Arial, sans-serif" font-size="48" font-weight="bold" fill="white" text-anchor="middle">Meu Mundo em Símbolos</text>
  <text x="600" y="510" font-family="Arial, sans-serif" font-size="24" fill="white" text-anchor="middle">Tecnologia inclusiva para que todas as vozes sejam compreendidas</text>
  
  <!-- Definições de gradientes e filtros -->
  <defs>
    <linearGradient id="paint0_linear" x1="0" y1="0" x2="1200" y2="630" gradientUnits="userSpaceOnUse">
      <stop offset="0" stop-color="#3B82F6"/>
      <stop offset="1" stop-color="#7C3AED"/>
    </linearGradient>
  </defs>
</svg>