<?xml version="1.0" encoding="UTF-8"?>
<svg width="1200" height="630" viewBox="0 0 1200 630" fill="none" xmlns="http://www.w3.org/2000/svg">
  <!-- Fundo com gradiente -->
  <rect width="1200" height="630" fill="url(#paint0_linear)"/>
  
  <!-- Círculos concêntricos -->
  <circle cx="600" cy="315" r="200" fill="#3B82F6" opacity="0.8"/>
  <circle cx="600" cy="315" r="160" fill="#60A5FA" opacity="0.8"/>
  <circle cx="600" cy="315" r="120" fill="#93C5FD" opacity="0.8"/>
  <circle cx="600" cy="315" r="80" fill="white" opacity="0.9"/>
  
  <!-- Símbolo do infinito (8 deitado) -->
  <g filter="url(#shadow)">
    <path 
      d="M550 315C550 341 529 362 503 362C490 362 479 351 479 338C479 325 490 314 503 314C516 314 527 325 527 338C527 351 516 362 503 362C529 362 550 341 550 315ZM650 315C650 289 671 268 697 268C710 268 721 279 721 292C721 305 710 316 697 316C684 316 673 305 673 292C673 279 684 268 697 268C671 268 650 289 650 315ZM503 314C529 268 671 268 697 314C671 362 529 362 503 314Z" 
      stroke="white" 
      stroke-width="12"
      fill="none"
    />
  </g>
  
  <!-- Texto -->
  <text x="600" y="480" font-family="Arial, sans-serif" font-size="48" font-weight="bold" fill="white" text-anchor="middle">Meu Mundo em Símbolos</text>
  <text x="600" y="540" font-family="Arial, sans-serif" font-size="24" fill="white" text-anchor="middle">Tecnologia inclusiva para que todas as vozes sejam compreendidas</text>
  
  <!-- Definições de gradientes e filtros -->
  <defs>
    <linearGradient id="paint0_linear" x1="0" y1="0" x2="1200" y2="630" gradientUnits="userSpaceOnUse">
      <stop offset="0" stop-color="#3B82F6"/>
      <stop offset="1" stop-color="#7C3AED"/>
    </linearGradient>
    
    <filter id="shadow" x="469" y="258" width="262" height="114" filterUnits="userSpaceOnUse" color-interpolation-filters="sRGB">
      <feFlood flood-opacity="0" result="BackgroundImageFix"/>
      <feColorMatrix in="SourceAlpha" type="matrix" values="0 0 0 0 0 0 0 0 0 0 0 0 0 0 0 0 0 0 127 0"/>
      <feOffset dy="4"/>
      <feGaussianBlur stdDeviation="2"/>
      <feColorMatrix type="matrix" values="0 0 0 0 0 0 0 0 0 0 0 0 0 0 0 0 0 0 0.25 0"/>
      <feBlend mode="normal" in2="BackgroundImageFix" result="effect1_dropShadow"/>
      <feBlend mode="normal" in="SourceGraphic" in2="effect1_dropShadow" result="shape"/>
    </filter>
  </defs>
</svg>